<svg width="7" height="11" viewBox="0 0 7 11" fill="none" xmlns="http://www.w3.org/2000/svg">
<path d="M6.80007 5.40002L2.30007 0.800049C2.16674 0.733382 2.03344 0.699951 1.90011 0.699951C1.76678 0.699951 1.63342 0.733382 1.50009 0.800049L1.2001 1.09998C0.900098 1.39998 0.900098 1.70002 1.2001 1.90002L5.00009 5.69995L1.2001 9.59998C1.06676 9.66664 1.00009 9.8 1.00009 10C1.00009 10.1333 1.06676 10.2667 1.2001 10.4L1.50009 10.7C1.63342 10.7666 1.76678 10.8 1.90011 10.8C2.03344 10.8 2.16674 10.7666 2.30007 10.7L6.80007 6.09998C6.93341 6.03331 7.00009 5.89995 7.00009 5.69995C7.00009 5.56662 6.93341 5.46669 6.80007 5.40002Z" fill="#202020"/>
</svg>
