<svg width="7" height="11" viewBox="0 0 7 11" fill="none" xmlns="http://www.w3.org/2000/svg">
<path d="M0.700012 5.40002L5.20001 0.800049C5.33335 0.733382 5.46667 0.699951 5.60001 0.699951C5.73334 0.699951 5.86667 0.733382 6 0.800049L6.29999 1.09998C6.59999 1.39998 6.59999 1.70002 6.29999 1.90002L2.5 5.69995L6.29999 9.59998C6.43332 9.66664 6.5 9.8 6.5 10C6.5 10.1333 6.43332 10.2667 6.29999 10.4L6 10.7C5.86667 10.7666 5.73334 10.8 5.60001 10.8C5.46667 10.8 5.33335 10.7666 5.20001 10.7L0.700012 6.09998C0.566679 6.03331 0.5 5.89995 0.5 5.69995C0.5 5.56662 0.566679 5.46669 0.700012 5.40002Z" fill="#202020"/>
</svg>
