<svg width="16" height="16" viewBox="0 0 16 16" fill="none" xmlns="http://www.w3.org/2000/svg">
<path d="M10.6963 16C8.89135 16 7.31577 15.4963 5.96949 14.4889C4.62321 13.4815 3.73555 12.1556 3.30652 10.5111H0V9.17778H2.99584C2.96625 9 2.94406 8.8037 2.92927 8.58889C2.91447 8.37407 2.90707 8.17778 2.90707 8C2.90707 7.82222 2.91447 7.62593 2.92927 7.41111C2.94406 7.1963 2.96625 7 2.99584 6.82222H0V5.48889H3.30652C3.77994 3.78519 4.67869 2.44444 6.00277 1.46667C7.32686 0.488889 8.89135 0 10.6963 0C11.7171 0 12.675 0.166667 13.57 0.5C14.4651 0.833333 15.2751 1.34074 16 2.02222L14.8682 3.15556C14.3061 2.63704 13.6625 2.24444 12.9376 1.97778C12.2127 1.71111 11.4656 1.57778 10.6963 1.57778C9.27601 1.57778 8.06657 1.92222 7.06796 2.61111C6.06935 3.3 5.37772 4.25926 4.99307 5.48889H10.7184V6.82222H4.59362C4.54924 7 4.51965 7.1963 4.50485 7.41111C4.49006 7.62593 4.48266 7.82222 4.48266 8C4.48266 8.17778 4.49006 8.37407 4.50485 8.58889C4.51965 8.8037 4.54924 9 4.59362 9.17778H10.7184V10.5111H4.99307C5.36292 11.7704 6.07305 12.737 7.12344 13.4111C8.17383 14.0852 9.36477 14.4222 10.6963 14.4222C11.4656 14.4222 12.2164 14.2889 12.9487 14.0222C13.681 13.7556 14.3209 13.363 14.8682 12.8444L16 13.9556C15.2159 14.6519 14.38 15.1667 13.4924 15.5C12.6047 15.8333 11.6727 16 10.6963 16Z" fill="black"/>
</svg>
