<svg width="17" height="19" viewBox="0 0 17 19" fill="none" xmlns="http://www.w3.org/2000/svg">
<path d="M1.41667 19C1.03889 19 0.708333 18.8575 0.425 18.5725C0.141667 18.2875 0 17.955 0 17.575V2.85C0 2.47 0.141667 2.1375 0.425 1.8525C0.708333 1.5675 1.03889 1.425 1.41667 1.425H2.95139V0H4.48611V1.425H12.5139V0H14.0486V1.425H15.5833C15.9611 1.425 16.2917 1.5675 16.575 1.8525C16.8583 2.1375 17 2.47 17 2.85V17.575C17 17.955 16.8583 18.2875 16.575 18.5725C16.2917 18.8575 15.9611 19 15.5833 19H1.41667ZM1.41667 17.575H15.5833V7.3625H1.41667V17.575ZM1.41667 5.9375H15.5833V2.85H1.41667V5.9375Z" fill="black"/>
</svg>
