<svg width="16" height="20" viewBox="0 0 16 20" fill="none" xmlns="http://www.w3.org/2000/svg">
<path d="M7.60211 9.679C8.05987 9.679 8.45104 9.51601 8.77563 9.19002C9.10021 8.86404 9.2625 8.47216 9.2625 8.01439C9.2625 7.55663 9.0995 7.16546 8.77351 6.84088C8.44754 6.5163 8.05566 6.354 7.59789 6.354C7.14013 6.354 6.74896 6.517 6.42438 6.84299C6.09979 7.16897 5.9375 7.56084 5.9375 8.01862C5.9375 8.47637 6.1005 8.86755 6.42649 9.19213C6.75247 9.51671 7.14434 9.679 7.60211 9.679ZM7.6 17.5403C9.70583 15.6244 11.2615 13.8867 12.2669 12.3271C13.2723 10.7675 13.775 9.394 13.775 8.2065C13.775 6.3415 13.1789 4.81441 11.9868 3.62525C10.7947 2.43608 9.33244 1.8415 7.6 1.8415C5.86756 1.8415 4.40529 2.43608 3.21319 3.62525C2.02106 4.81441 1.425 6.3415 1.425 8.2065C1.425 9.394 1.93958 10.7675 2.96875 12.3271C3.99792 13.8867 5.54167 15.6244 7.6 17.5403ZM7.6 19.4165C5.05083 17.2473 3.14688 15.2325 1.88813 13.3721C0.629375 11.5117 0 9.78984 0 8.2065C0 5.8315 0.763958 3.93942 2.29188 2.53025C3.81979 1.12109 5.58917 0.416504 7.6 0.416504C9.61083 0.416504 11.3802 1.12109 12.9081 2.53025C14.436 3.93942 15.2 5.8315 15.2 8.2065C15.2 9.78984 14.5706 11.5117 13.3119 13.3721C12.0531 15.2325 10.1492 17.2473 7.6 19.4165Z" fill="black"/>
</svg>
