<svg width="11" height="15" viewBox="0 0 11 15" fill="none" xmlns="http://www.w3.org/2000/svg">
<g id="Group 1000005467">
<path id="Vector" d="M5.25 0C2.3475 0 0 2.3475 0 5.25C0 9.1875 5.25 15 5.25 15C5.25 15 10.5 9.1875 10.5 5.25C10.5 2.3475 8.1525 0 5.25 0ZM1.5 5.25C1.5 3.18 3.18 1.5 5.25 1.5C7.32 1.5 9 3.18 9 5.25C9 7.41 6.84 10.6425 5.25 12.66C3.69 10.6575 1.5 7.3875 1.5 5.25Z" fill="white"/>
<path id="Vector_2" d="M5.25 7.125C6.28553 7.125 7.125 6.28553 7.125 5.25C7.125 4.21447 6.28553 3.375 5.25 3.375C4.21447 3.375 3.375 4.21447 3.375 5.25C3.375 6.28553 4.21447 7.125 5.25 7.125Z" fill="white"/>
</g>
</svg>
