<svg width="15" height="16" viewBox="0 0 15 16" fill="none" xmlns="http://www.w3.org/2000/svg">
<g id="Group 1000005466">
<path id="Vector" d="M14.5575 7.685L7.8075 0.935C7.5375 0.665 7.1625 0.5 6.75 0.5H1.5C0.675 0.5 0 1.175 0 2V7.25C0 7.6625 0.165 8.0375 0.4425 8.315L7.1925 15.065C7.4625 15.335 7.8375 15.5 8.25 15.5C8.6625 15.5 9.0375 15.335 9.3075 15.0575L14.5575 9.8075C14.835 9.5375 15 9.1625 15 8.75C15 8.3375 14.8275 7.955 14.5575 7.685ZM8.25 14.0075L1.5 7.25V2H6.75V1.9925L13.5 8.7425L8.25 14.0075Z" fill="white"/>
<path id="Vector_2" d="M3.375 5C3.99632 5 4.5 4.49632 4.5 3.875C4.5 3.25368 3.99632 2.75 3.375 2.75C2.75368 2.75 2.25 3.25368 2.25 3.875C2.25 4.49632 2.75368 5 3.375 5Z" fill="white"/>
</g>
</svg>
